<svg width="61" height="24" viewBox="0 0 61 24" fill="none" xmlns="http://www.w3.org/2000/svg">
<path d="M7 11L11 2C11.7956 2 12.5587 2.31607 13.1213 2.87868C13.6839 3.44129 14 4.20435 14 5V9H19.66C19.9499 8.99672 20.2371 9.0565 20.5016 9.17522C20.7661 9.29393 21.0016 9.46873 21.1919 9.68751C21.3821 9.90629 21.5225 10.1638 21.6033 10.4423C21.6842 10.7207 21.7035 11.0134 21.66 11.3L20.28 20.3C20.2077 20.7769 19.9654 21.2116 19.5979 21.524C19.2304 21.8364 18.7623 22.0055 18.28 22H7M7 11V22M7 11H4C3.46957 11 2.96086 11.2107 2.58579 11.5858C2.21071 11.9609 2 12.4696 2 13V20C2 20.5304 2.21071 21.0391 2.58579 21.4142C2.96086 21.7893 3.46957 22 4 22H7" stroke="#9B8AFB" stroke-width="2" stroke-linecap="round" stroke-linejoin="round"/>
<path d="M54 13L50 22C49.2044 22 48.4413 21.6839 47.8787 21.1213C47.3161 20.5587 47 19.7956 47 19V15H41.34C41.0501 15.0033 40.7629 14.9435 40.4984 14.8248C40.2339 14.7061 39.9984 14.5313 39.8081 14.3125C39.6179 14.0937 39.4775 13.8362 39.3967 13.5577C39.3158 13.2793 39.2965 12.9866 39.34 12.7L40.72 3.7C40.7923 3.22309 41.0346 2.78839 41.4021 2.47599C41.7696 2.1636 42.2377 1.99455 42.72 2H54M54 13V2M54 13H57C57.5304 13 58.0391 12.7893 58.4142 12.4142C58.7893 12.0391 59 11.5304 59 11V4C59 3.46957 58.7893 2.96086 58.4142 2.58579C58.0391 2.21071 57.5304 2 57 2H54" stroke="#9B8AFB" stroke-width="2" stroke-linecap="round" stroke-linejoin="round"/>
</svg>
