<svg width="60" height="60" viewBox="0 0 60 60" fill="none" xmlns="http://www.w3.org/2000/svg">
<path fill-rule="evenodd" clip-rule="evenodd" d="M23.4801 14.427C23.4801 12.8431 24.6797 11.5641 25.7201 11.0226C28.8094 9.4149 32.6225 11.5292 32.4634 14.3342C32.403 15.4 31.9058 16.4331 31.3562 17.3338C31.2091 17.5748 30.919 17.8988 30.919 18.2697C30.919 19.0652 31.9085 19.5767 32.5655 19.7495C34.2534 20.1935 37.3824 19.8787 39.1902 19.4401C42.184 18.7137 42.2401 19.7359 41.1121 22.5722C40.6591 23.7116 40.4113 25.6077 40.3823 26.691C40.3466 28.0217 40.6445 30.2703 42.2897 29.7538C43.4915 29.3766 44.3926 28.1124 45.9101 28.1124C47.3509 28.1124 48.1535 28.698 48.8635 29.7409C50.0264 31.4489 50.2413 34.1533 48.8089 35.9322C48.1065 36.8046 47.1233 37.2809 45.7753 37.2809C43.7476 37.2809 42.475 34.8348 41.8718 35.8716C41.5466 36.4306 41.7672 40.6992 41.8395 41.2753C42.0633 43.0574 42.4719 43.4099 42.4719 45.0337C42.4719 46.4669 40.7681 47.191 39.3034 47.191C37.8558 47.191 37.7636 47.1963 36.2175 47.0287C35.5691 46.9584 34.8886 46.8836 34.2525 46.778C33.6181 46.6726 32.9741 46.5402 32.3524 46.4522C31.8423 46.38 30.9377 46.2383 30.7416 45.8427C30.7 45.444 32.7215 44.3365 32.7215 41.7978C32.7215 39.5798 30.2969 37.9496 28.0449 37.9496C25.8549 37.9496 23.7323 38.9284 23.461 40.7917C23.1769 42.7431 24.2003 44.5034 25.3909 45.7947C24.6939 46.489 23.6488 46.7173 22.4688 47.0047C20.954 47.3737 20.9552 47.4083 19.5002 47.4146C17.5845 47.4228 14.3596 46.8932 14.3596 44.6292C14.3596 42.4052 16.9285 39.1347 15.1868 33.8913C15.0832 33.5793 14.8611 33.2136 14.8563 32.9183C15.3241 32.7782 16.2529 33.6655 16.6963 33.9326C17.4946 34.4134 18.1859 34.6571 19.2135 34.6571C21.4645 34.6571 23.1236 32.1671 23.1236 30.6067V29.7303C23.1236 28.4599 22.0836 26.6548 20.765 26.0191C17.7179 24.5501 15.9255 28.4045 15.2696 25.7192C15.0409 24.7825 14.5192 22.1006 14.5192 21.236C14.5192 17.436 21.0501 19.2383 23.6629 19.2383C24.1897 19.2383 25.2313 19.2152 25.4157 18.8284C25.7505 18.1264 23.4801 16.6492 23.4801 14.427ZM12.1251 5.86518L11.2182 6.56003C10.938 6.80926 10.6425 7.04007 10.3618 7.25855C9.71873 7.75906 8.17678 9.4135 7.5929 10.0187C6.89572 10.7413 6.1494 11.8126 5.85793 12.1224L4.71634 13.8186C2.56395 17.1622 0.545185 22.2836 0.218446 26.2357L0 28.6517V31.618C0.0513542 31.7087 0.0176497 31.6029 0.0476312 31.7664L0.143858 32.7691C0.285522 34.1301 0.26056 34.3098 0.574235 35.8933C0.701142 36.534 0.880233 37.3209 1.05514 37.9154C1.55402 39.611 1.70034 39.9328 2.33015 41.6249C2.45403 41.9577 2.5706 42.1909 2.72905 42.511C2.85439 42.7642 2.97798 43.0803 3.10924 43.3444C3.60177 44.3355 4.69786 46.0681 4.92136 46.5266L6.07511 48.1278C6.23526 48.3615 6.28811 48.4195 6.46019 48.6169L8.08989 50.5516C8.29385 50.6493 8.44066 50.8363 8.63285 51.0304C8.81566 51.2151 9.00536 51.3518 9.11126 51.573C9.4136 51.7974 9.81539 52.1983 10.0918 52.472C10.5667 52.9421 13.1048 54.8188 13.1461 54.8764L16.2472 56.6966C16.6868 56.8577 17.0629 57.1005 17.4252 57.2796C18.0915 57.6088 21.2224 58.7168 21.2263 58.7191L23.883 59.376C25.3005 59.6356 26.7473 59.8593 28.2473 59.9232C28.306 59.9257 28.4713 59.9306 28.5192 59.9358L28.7865 60H31.2135L33.7977 59.7359C34.7774 59.6108 35.6762 59.4878 36.5535 59.2622L41.4607 57.7115C41.8972 57.5533 42.1344 57.4713 42.5074 57.2751C42.7969 57.1227 43.2284 56.8951 43.4831 56.8315L45.5153 55.6854C45.6405 55.5961 45.8161 55.507 45.9284 55.4405C46.8231 54.9107 47.742 54.1348 48.5393 53.5955L49.9128 52.4072C50.1808 52.1632 50.3148 52.0228 50.583 51.7971L53.5955 48.5393C53.7603 48.2957 53.9668 48.0393 54.1397 47.8025C54.2479 47.6544 54.3349 47.5529 54.4354 47.4203C54.8769 46.8381 55.4293 45.8745 55.6854 45.5153C55.8651 45.1589 56.0842 44.8502 56.2651 44.4727C56.4331 44.1222 56.6458 43.7034 56.8315 43.4831C56.8927 43.2427 57.1546 42.7373 57.2998 42.4625C57.4497 42.1789 57.6328 41.7847 57.7115 41.4607C58.6784 39.5564 59.7904 34.6831 59.8685 32.6965C59.8784 32.4425 59.9011 31.3865 60 31.2135V28.7865L59.9425 28.581C59.9385 28.5547 59.9299 28.4182 59.9281 28.3861C59.8383 26.7881 59.7244 25.5714 59.3903 23.9367L58.8568 21.7749C58.5146 20.5495 57.9207 18.9746 57.4224 17.8165C57.3291 17.5998 57.2143 17.3875 57.1685 17.191L56.6966 16.2472L56.4274 15.8373C56.3553 15.7082 56.2866 15.5754 56.2163 15.4396L54.8764 13.1461L54.0668 12.0692C53.6345 11.54 52.8814 10.4927 52.4373 10.0591C52.2013 9.82862 51.763 9.36723 51.573 9.11126C51.3523 9.00562 51.2138 8.8162 51.0302 8.63265C50.8467 8.44914 50.6573 8.3106 50.5516 8.08989C50.3254 7.96335 49.8236 7.47214 49.5813 7.24994C48.9802 6.69864 48.151 6.12859 47.5442 5.64184L46.5266 4.92136L44.9633 3.97947C44.3031 3.58728 42.3093 2.58193 41.6248 2.32968C38.6097 1.21841 37.2683 0.668135 33.7552 0.218911C33.3052 0.161375 33.1372 0.182347 32.7049 0.133154L31.8239 0.0566377C31.8037 0.0541447 31.7838 0.0504886 31.7664 0.04763C31.7502 0.0449377 31.7264 0.037061 31.7137 0.0345016L31.618 0H28.6517L27.4181 0.100812C27.098 0.150538 26.5896 0.187267 26.1857 0.232306C22.6342 0.628381 18.5929 1.9839 15.5548 3.69647C13.7026 4.74054 13.4675 5.04062 12.1251 5.86518Z" fill="#17B9DC"/>
<path fill-rule="evenodd" clip-rule="evenodd" d="M23.4799 14.4269C23.4799 16.6492 25.7503 18.1263 25.4155 18.8284C25.2311 19.2152 24.1896 19.2383 23.6628 19.2383C21.0499 19.2383 14.5191 17.436 14.5191 21.2359C14.5191 22.1006 15.0407 24.7825 15.2694 25.7192C15.9253 28.4045 17.7177 24.5501 20.7648 26.0191C22.0834 26.6548 23.1234 28.4599 23.1234 29.7303V30.6067C23.1234 32.1671 21.4643 34.6571 19.2133 34.6571C18.1857 34.6571 17.4945 34.4134 16.6961 33.9326C16.2527 33.6655 15.3239 32.7782 14.8561 32.9183C14.8609 33.2136 15.083 33.5793 15.1866 33.8913C16.9283 39.1346 14.3594 42.4052 14.3594 44.6292C14.3594 46.8932 17.5843 47.4228 19.5 47.4146C20.955 47.4083 20.9538 47.3736 22.4686 47.0047C23.6486 46.7173 24.6938 46.489 25.3907 45.7947C24.2001 44.5034 23.1767 42.7431 23.4608 40.7917C23.7321 38.9284 25.8547 37.9496 28.0447 37.9496C30.2967 37.9496 32.7213 39.5797 32.7213 41.7978C32.7213 44.3365 30.6998 45.444 30.7414 45.8427C30.9375 46.2383 31.8421 46.38 32.3522 46.4522C32.9739 46.5402 33.6179 46.6726 34.2523 46.778C34.8884 46.8836 35.5689 46.9584 36.2173 47.0287C37.7634 47.1963 37.8556 47.191 39.3032 47.191C40.7679 47.191 42.4717 46.4669 42.4717 45.0337C42.4717 43.4099 42.0631 43.0573 41.8394 41.2753C41.767 40.6991 41.5464 36.4306 41.8716 35.8716C42.4748 34.8348 43.7474 37.2809 45.7751 37.2809C47.1231 37.2809 48.1064 36.8046 48.8088 35.9322C50.2411 34.1533 50.0262 31.4489 48.8633 29.7409C48.1533 28.698 47.3507 28.1123 45.9099 28.1123C44.3924 28.1123 43.4913 29.3766 42.2895 29.7538C40.6443 30.2703 40.3465 28.0216 40.3821 26.691C40.4112 25.6077 40.6589 23.7116 41.112 22.5722C42.2399 19.7359 42.1839 18.7136 39.19 19.4401C37.3823 19.8787 34.2532 20.1935 32.5653 19.7495C31.9084 19.5767 30.9188 19.0651 30.9188 18.2697C30.9188 17.8988 31.2089 17.5748 31.356 17.3338C31.9056 16.433 32.4028 15.4 32.4632 14.3342C32.6223 11.5292 28.8092 9.41488 25.7199 11.0226C24.6795 11.5641 23.4799 12.843 23.4799 14.4269Z" fill="white"/>
</svg>
